# xmcd
#
# Track frame offsets: 
#        150
#        21793
#        43120
#        58015
#        71790
#        91318
#        105215
#        123000
#        136363
#        148625
#        168213
#        180253
#
# Disc length: 2677 seconds
#
# Revision: 0
# Processed by: cddbd v1.5.2PL0 Copyright (c) Steve Scherf et al.
# Submitted via: ExactAudioCopy v0.99pb4
#
DISCID=980a730c
DTITLE=Various Artist - Southern Rock Classics
DYEAR=2003
DGENRE=Country
TTITLE0=The Allman Brothers Band - Ramblin' Man
TTITLE1=Lynyrd Skynyrd - Sweet Home Alabama
TTITLE2=The Marshall Tucker Band - Can't You See
TTITLE3=The Outlaws - There Goes Another Love Song
TTITLE4=Pure Prairie League - Amie
TTITLE5=Ozark Mountain Daredevils - If You Wanna Get To Heavean
TTITLE6=Little Feat - Dixie Chicken
TTITLE7=Flying Burrito Brothers - Lazy Days
TTITLE8=Commander Cody And His Lost Planet Airmen - Hot Rod Lincoln
TTITLE9=Atlanta Rhythm Section - So Into You
TTITLE10=Black Oak Arkansas - Jim Dandy
TTITLE11=38 Special - Hold On Loosely
EXTD=
EXTT0=
EXTT1=
EXTT2=
EXTT3=
EXTT4=
EXTT5=
EXTT6=
EXTT7=
EXTT8=
EXTT9=
EXTT10=
EXTT11=
PLAYORDER=
